<?xml version="1.0" standalone="no"?>
<!DOCTYPE svg PUBLIC "-//W3C//DTD SVG 20010904//EN"
 "http://www.w3.org/TR/2001/REC-SVG-20010904/DTD/svg10.dtd">
<svg version="1.0" xmlns="http://www.w3.org/2000/svg"
 width="225.000000pt" height="225.000000pt" viewBox="0 0 225.000000 225.000000"
 preserveAspectRatio="xMidYMid meet">

<g transform="translate(0.000000,225.000000) scale(0.100000,-0.100000)"
stroke="none">
<path d="M1030 2239 c-329 -20 -646 -206 -837 -491 -128 -193 -183 -376 -183
-616 0 -250 52 -432 180 -625 341 -514 1031 -658 1546 -322 232 151 398 381
476 662 20 69 22 102 22 283 0 195 -1 209 -27 294 -62 201 -146 346 -280 483
-161 166 -364 275 -586 317 -99 19 -182 23 -311 15z m-101 -824 l196 -194 196
194 c137 137 202 195 217 195 29 0 72 -43 72 -71 0 -16 -58 -81 -195 -218
l-194 -196 194 -196 c137 -137 195 -202 195 -217 0 -29 -43 -72 -72 -72 -15 0
-80 58 -217 195 l-196 194 -196 -194 c-137 -137 -202 -195 -218 -195 -28 0
-71 43 -71 71 0 16 58 81 195 218 l194 196 -194 196 c-137 137 -195 202 -195
217 0 29 43 72 71 72 16 0 81 -58 218 -195z"/>
</g>
</svg>
