<?xml version="1.0" standalone="no"?>
<!DOCTYPE svg PUBLIC "-//W3C//DTD SVG 20010904//EN"
 "http://www.w3.org/TR/2001/REC-SVG-20010904/DTD/svg10.dtd">
<svg version="1.0" xmlns="http://www.w3.org/2000/svg"
 width="250.000000pt" height="231.000000pt" viewBox="0 0 250.000000 231.000000"
 preserveAspectRatio="xMidYMid meet">

<g transform="translate(0.000000,231.000000) scale(0.100000,-0.100000)"
fill="#000000" stroke="none">
<path d="M2337 2232 c-524 -328 -1058 -847 -1559 -1514 l-95 -127 -322 181
c-305 171 -323 180 -336 162 -8 -11 -13 -22 -12 -26 7 -22 784 -908 797 -908
10 0 40 50 84 138 376 756 870 1435 1444 1981 128 123 150 147 141 163 -5 10
-15 18 -22 18 -7 0 -61 -31 -120 -68z"/>
</g>
</svg>
