<svg width="56" height="38" viewBox="0 0 56 38" fill="none" xmlns="http://www.w3.org/2000/svg">
<g clip-path="url(#clip0_2471_361088)">
<path d="M0 0H56V37.3337H0V0Z" fill="white"/>
<path d="M31.5 -0.000244141H24.5V15.1664H0V22.1664H24.5V37.3329H31.5V22.1664H56V15.1664H31.5V-0.000244141Z" fill="#D80027"/>
<path d="M43.0712 25.1589L56.001 32.3422V25.1589H43.0712ZM34.0879 25.1589L56.001 37.3328V33.8903L40.2845 25.1589H34.0879ZM50.164 37.3328L34.0879 28.4008V37.3328H50.164Z" fill="#0052B4"/>
<path d="M34.0879 25.1589L56.001 37.3328V33.8903L40.2845 25.1589H34.0879Z" fill="white"/>
<path d="M34.0879 25.1589L56.001 37.3328V33.8903L40.2845 25.1589H34.0879Z" fill="#D80027"/>
<path d="M9.88105 25.1587L0 30.6482V25.1587H9.88105ZM21.9131 26.7068V37.3327H2.78808L21.9131 26.7068Z" fill="#0052B4"/>
<path d="M15.7164 25.1589L0 33.8903V37.3328L21.9131 25.1589H15.7164Z" fill="#D80027"/>
<path d="M12.9298 12.1736L0 4.99032V12.1736H12.9298ZM21.9131 12.1736L0 -0.000244141V3.44222L15.7164 12.1736H21.9131ZM5.83691 -0.000244141L21.9131 8.93176V-0.000244141H5.83691Z" fill="#0052B4"/>
<path d="M21.9131 12.1736L0 -0.000244141V3.44222L15.7164 12.1736H21.9131Z" fill="white"/>
<path d="M21.9131 12.1736L0 -0.000244141V3.44222L15.7164 12.1736H21.9131Z" fill="#D80027"/>
<path d="M46.1199 12.1737L56.001 6.68421V12.1737H46.1199ZM34.0879 10.6256V-0.000244141H53.2129L34.0879 10.6256Z" fill="#0052B4"/>
<path d="M40.2845 12.1736L56.001 3.44222V-0.000244141L34.0879 12.1736H40.2845Z" fill="#D80027"/>
</g>
<defs>
<clipPath id="clip0_2471_361088">
<rect width="56" height="37.3333" rx="4" fill="white"/>
</clipPath>
</defs>
</svg>
