<?xml version="1.0" standalone="no"?>
<!DOCTYPE svg PUBLIC "-//W3C//DTD SVG 20010904//EN"
 "http://www.w3.org/TR/2001/REC-SVG-20010904/DTD/svg10.dtd">
<svg version="1.0" xmlns="http://www.w3.org/2000/svg"
 width="512.000000pt" height="512.000000pt" viewBox="0 0 512.000000 512.000000"
 preserveAspectRatio="xMidYMid meet">

<g transform="translate(0.000000,512.000000) scale(0.100000,-0.100000)"
fill="#000000" stroke="none">
<path d="M2325 5109 c-235 -24 -484 -83 -690 -164 -777 -303 -1362 -969 -1560
-1775 -53 -216 -70 -364 -70 -610 0 -254 18 -400 75 -626 50 -196 94 -313 190
-509 246 -502 653 -909 1155 -1155 260 -128 483 -199 760 -242 201 -31 550
-31 750 0 281 44 516 119 765 243 505 253 901 651 1150 1154 127 257 199 482
242 760 31 200 31 550 0 750 -43 277 -114 500 -242 760 -245 500 -648 904
-1151 1154 -250 125 -490 201 -762 242 -153 23 -473 33 -612 18z m416 -509
c322 -32 641 -138 899 -300 266 -167 505 -408 673 -680 212 -344 322 -804 289
-1207 -56 -674 -409 -1252 -982 -1606 -345 -212 -803 -322 -1207 -289 -841 69
-1537 613 -1797 1403 -237 721 -60 1505 466 2054 427 447 1056 684 1659 625z"/>
<path d="M2395 3829 c-219 -30 -446 -125 -621 -259 -84 -66 -220 -213 -278
-302 -149 -230 -210 -436 -210 -708 0 -357 120 -649 373 -901 189 -190 394
-299 661 -355 105 -22 350 -25 460 -5 259 47 490 168 681 360 253 252 373 544
373 901 0 357 -120 649 -373 901 -186 187 -407 306 -653 354 -102 20 -318 27
-413 14z"/>
</g>
</svg>
