<?xml version="1.0" standalone="no"?>
<!DOCTYPE svg PUBLIC "-//W3C//DTD SVG 20010904//EN"
 "http://www.w3.org/TR/2001/REC-SVG-20010904/DTD/svg10.dtd">
<svg version="1.0" xmlns="http://www.w3.org/2000/svg"
 width="1200.000000pt" height="1200.000000pt" viewBox="0 0 1200.000000 1200.000000"
 preserveAspectRatio="xMidYMid meet">

<g transform="translate(0.000000,1200.000000) scale(0.100000,-0.100000)"
fill="#000000" stroke="none">
<path d="M5180 10670 c-483 -45 -899 -160 -1315 -365 -381 -187 -655 -379
-949 -665 -440 -427 -748 -914 -936 -1480 -134 -402 -190 -747 -190 -1175 0
-235 11 -383 46 -595 187 -1166 931 -2178 1992 -2710 384 -192 759 -306 1212
-367 192 -26 686 -26 885 0 534 70 1021 236 1459 501 60 36 113 66 117 66 4 0
20 -24 37 -53 16 -28 56 -88 89 -132 81 -108 1704 -1989 1806 -2093 327 -333
678 -377 763 -96 17 56 18 181 3 256 -29 144 -110 328 -203 462 -45 65 -1216
1432 -1730 2019 l-138 159 49 52 c177 182 384 463 525 711 467 820 598 1814
361 2740 -228 892 -782 1665 -1563 2178 -459 302 -1009 502 -1573 573 -144 18
-609 27 -747 14z m547 -641 c611 -50 1179 -263 1657 -623 625 -471 1046 -1156
1175 -1917 61 -359 53 -779 -24 -1139 -64 -303 -200 -644 -364 -915 -668
-1100 -1939 -1676 -3221 -1459 -800 135 -1518 575 -1997 1224 -671 909 -776
2113 -272 3122 283 568 738 1036 1304 1341 522 282 1153 415 1742 366z"/>
</g>
</svg>
